<mxfile host="Electron" agent="Mozilla/5.0 (Windows NT 10.0; Win64; x64) AppleWebKit/537.36 (KHTML, like Gecko) draw.io/24.7.8 Chrome/128.0.6613.36 Electron/32.0.1 Safari/537.36" version="24.7.8">
  <diagram name="Страница — 1" id="-E3tiWl5pIj75L_IpRq8">
    <mxGraphModel dx="1098" dy="820" grid="1" gridSize="10" guides="1" tooltips="1" connect="1" arrows="1" fold="1" page="1" pageScale="1" pageWidth="827" pageHeight="1169" math="0" shadow="0">
      <root>
        <mxCell id="0" />
        <mxCell id="1" parent="0" />
        <mxCell id="JcwuLQA71DJsOXQGXVrx-2" value="" style="rounded=0;whiteSpace=wrap;html=1;" vertex="1" parent="1">
          <mxGeometry x="320" width="120" height="60" as="geometry" />
        </mxCell>
        <mxCell id="JcwuLQA71DJsOXQGXVrx-14" value="" style="edgeStyle=orthogonalEdgeStyle;rounded=0;orthogonalLoop=1;jettySize=auto;html=1;" edge="1" parent="1" source="JcwuLQA71DJsOXQGXVrx-3" target="JcwuLQA71DJsOXQGXVrx-5">
          <mxGeometry relative="1" as="geometry" />
        </mxCell>
        <mxCell id="JcwuLQA71DJsOXQGXVrx-3" value="запуск приложения" style="text;html=1;align=center;verticalAlign=middle;whiteSpace=wrap;rounded=0;" vertex="1" parent="1">
          <mxGeometry x="350" y="15" width="60" height="30" as="geometry" />
        </mxCell>
        <mxCell id="JcwuLQA71DJsOXQGXVrx-4" value="" style="rounded=0;whiteSpace=wrap;html=1;" vertex="1" parent="1">
          <mxGeometry x="310" y="130" width="120" height="60" as="geometry" />
        </mxCell>
        <mxCell id="JcwuLQA71DJsOXQGXVrx-5" value="выбор местоположения" style="text;html=1;align=center;verticalAlign=middle;whiteSpace=wrap;rounded=0;" vertex="1" parent="1">
          <mxGeometry x="340" y="145" width="60" height="30" as="geometry" />
        </mxCell>
        <mxCell id="JcwuLQA71DJsOXQGXVrx-6" value="" style="rounded=0;whiteSpace=wrap;html=1;" vertex="1" parent="1">
          <mxGeometry x="310" y="260" width="120" height="60" as="geometry" />
        </mxCell>
        <mxCell id="JcwuLQA71DJsOXQGXVrx-15" value="" style="edgeStyle=orthogonalEdgeStyle;rounded=0;orthogonalLoop=1;jettySize=auto;html=1;" edge="1" parent="1" source="JcwuLQA71DJsOXQGXVrx-7" target="JcwuLQA71DJsOXQGXVrx-5">
          <mxGeometry relative="1" as="geometry" />
        </mxCell>
        <mxCell id="JcwuLQA71DJsOXQGXVrx-16" value="" style="edgeStyle=orthogonalEdgeStyle;rounded=0;orthogonalLoop=1;jettySize=auto;html=1;" edge="1" parent="1" source="JcwuLQA71DJsOXQGXVrx-7" target="JcwuLQA71DJsOXQGXVrx-9">
          <mxGeometry relative="1" as="geometry" />
        </mxCell>
        <mxCell id="JcwuLQA71DJsOXQGXVrx-7" value="Получение данных о погоде" style="text;html=1;align=center;verticalAlign=middle;whiteSpace=wrap;rounded=0;" vertex="1" parent="1">
          <mxGeometry x="340" y="275" width="60" height="30" as="geometry" />
        </mxCell>
        <mxCell id="JcwuLQA71DJsOXQGXVrx-17" value="" style="edgeStyle=orthogonalEdgeStyle;rounded=0;orthogonalLoop=1;jettySize=auto;html=1;" edge="1" parent="1" source="JcwuLQA71DJsOXQGXVrx-8" target="JcwuLQA71DJsOXQGXVrx-11">
          <mxGeometry relative="1" as="geometry" />
        </mxCell>
        <mxCell id="JcwuLQA71DJsOXQGXVrx-8" value="" style="rounded=0;whiteSpace=wrap;html=1;" vertex="1" parent="1">
          <mxGeometry x="310" y="390" width="120" height="60" as="geometry" />
        </mxCell>
        <mxCell id="JcwuLQA71DJsOXQGXVrx-9" value="Отображение информации" style="text;html=1;align=center;verticalAlign=middle;whiteSpace=wrap;rounded=0;" vertex="1" parent="1">
          <mxGeometry x="340" y="405" width="60" height="30" as="geometry" />
        </mxCell>
        <mxCell id="JcwuLQA71DJsOXQGXVrx-18" value="" style="edgeStyle=orthogonalEdgeStyle;rounded=0;orthogonalLoop=1;jettySize=auto;html=1;" edge="1" parent="1" source="JcwuLQA71DJsOXQGXVrx-10" target="JcwuLQA71DJsOXQGXVrx-13">
          <mxGeometry relative="1" as="geometry" />
        </mxCell>
        <mxCell id="JcwuLQA71DJsOXQGXVrx-10" value="" style="rounded=0;whiteSpace=wrap;html=1;" vertex="1" parent="1">
          <mxGeometry x="310" y="525" width="120" height="60" as="geometry" />
        </mxCell>
        <mxCell id="JcwuLQA71DJsOXQGXVrx-11" value="просмотр погоды" style="text;html=1;align=center;verticalAlign=middle;whiteSpace=wrap;rounded=0;" vertex="1" parent="1">
          <mxGeometry x="340" y="540" width="60" height="30" as="geometry" />
        </mxCell>
        <mxCell id="JcwuLQA71DJsOXQGXVrx-12" value="" style="rounded=0;whiteSpace=wrap;html=1;" vertex="1" parent="1">
          <mxGeometry x="310" y="650" width="120" height="60" as="geometry" />
        </mxCell>
        <mxCell id="JcwuLQA71DJsOXQGXVrx-13" value="выход из приложения" style="text;html=1;align=center;verticalAlign=middle;whiteSpace=wrap;rounded=0;" vertex="1" parent="1">
          <mxGeometry x="340" y="665" width="60" height="30" as="geometry" />
        </mxCell>
      </root>
    </mxGraphModel>
  </diagram>
</mxfile>
